<?xml version="1.0" encoding="UTF-8"?>
<svg xmlns="http://www.w3.org/2000/svg" xmlns:xlink="http://www.w3.org/1999/xlink" width="38px" height="38px" viewBox="0 0 38 38" version="1.1">
<g id="surface1">
<path style=" stroke:none;fill-rule:nonzero;fill:rgb(96.470588%,74.117647%,100%);fill-opacity:1;" d="M 0 12.667969 C 0 8.234375 0 6.015625 0.863281 4.324219 C 1.621094 2.832031 2.832031 1.621094 4.324219 0.863281 C 6.015625 0 8.234375 0 12.667969 0 L 25.332031 0 C 29.765625 0 31.984375 0 33.675781 0.863281 C 35.167969 1.621094 36.378906 2.832031 37.136719 4.324219 C 38 6.015625 38 8.234375 38 12.667969 L 38 25.332031 C 38 29.765625 38 31.984375 37.136719 33.675781 C 36.378906 35.167969 35.167969 36.378906 33.675781 37.136719 C 31.984375 38 29.765625 38 25.332031 38 L 12.667969 38 C 8.234375 38 6.015625 38 4.324219 37.136719 C 2.832031 36.378906 1.621094 35.167969 0.863281 33.675781 C 0 31.984375 0 29.765625 0 25.332031 Z M 0 12.667969 "/>
<path style=" stroke:none;fill-rule:nonzero;fill:rgb(100%,100%,100%);fill-opacity:1;" d="M 30 19 C 30 25.074219 25.074219 30 19 30 C 12.925781 30 8 25.074219 8 19 C 8 12.925781 12.925781 8 19 8 C 25.074219 8 30 12.925781 30 19 Z M 30 19 "/>
<path style=" stroke:none;fill-rule:evenodd;fill:rgb(96.470588%,74.117647%,100%);fill-opacity:1;" d="M 15.152344 19 C 15.152344 21.125 16.875 22.847656 19 22.847656 C 21.125 22.847656 22.847656 21.125 22.847656 19 L 25 19 C 25 22.3125 22.3125 25 19 25 C 15.6875 25 13 22.3125 13 19 Z M 15.152344 19 "/>
</g>
</svg>
